<?xml version="1.0" encoding="UTF-8"?>
<!DOCTYPE svg
PUBLIC "-//W3C//DTD SVG 1.1//EN"
       "http://www.w3.org/Graphics/SVG/1.1/DTD/svg11.dtd">
<svg viewBox="73 2 1123 620" width="1050px" height="618px" xmlns="http://www.w3.org/2000/svg" version="1.1">
   <line x1="222" y1="321" x2="232" y2="321" style="stroke:#bbb;stroke-width:1;"/>
   <line x1="363" y1="328" x2="373" y2="328" style="stroke:#bbb;stroke-width:1;"/>
   <line x1="232" y1="321" x2="363" y2="328" style="stroke:#bbb;stroke-width:1;"/>
   <line x1="229.5" y1="321" x2="225.96446609407" y2="324.53553390593" style="stroke:#bbb;stroke-width:2;"/>
   <line x1="229.5" y1="321" x2="225.96446609407" y2="317.46446609407" style="stroke:#bbb;stroke-width:2;"/>
   <line x1="368" y1="328" x2="364.46446609407" y2="331.53553390593" style="stroke:#bbb;stroke-width:2;"/>
   <line x1="368" y1="328" x2="364.46446609407" y2="324.46446609407" style="stroke:#bbb;stroke-width:2;"/>
   <line x1="603" y1="443" x2="593" y2="443" style="stroke:#0bf;stroke-width:1;"/>
   <line x1="555" y1="328" x2="545" y2="328" style="stroke:#0bf;stroke-width:1;"/>
   <line x1="593" y1="443" x2="555" y2="328" style="stroke:#0bf;stroke-width:1;"/>
   <line x1="595.5" y1="443" x2="599.03553390593" y2="446.53553390593" style="stroke:#0bf;stroke-width:2;"/>
   <line x1="595.5" y1="443" x2="599.03553390593" y2="439.46446609407" style="stroke:#0bf;stroke-width:2;"/>
   <line x1="550" y1="328" x2="553.53553390593" y2="331.53553390593" style="stroke:#0bf;stroke-width:2;"/>
   <line x1="550" y1="328" x2="553.53553390593" y2="324.46446609407" style="stroke:#0bf;stroke-width:2;"/>
   <line x1="907" y1="67" x2="897" y2="67" style="stroke:#cb0;stroke-width:1;"/>
   <line x1="900" y1="254" x2="910" y2="254" style="stroke:#cb0;stroke-width:1;"/>
   <line x1="897" y1="67" x2="900" y2="254" style="stroke:#cb0;stroke-width:1;"/>
   <line x1="899.5" y1="67" x2="903.03553390593" y2="70.535533905933" style="stroke:#cb0;stroke-width:2;"/>
   <line x1="899.5" y1="67" x2="903.03553390593" y2="63.464466094067" style="stroke:#cb0;stroke-width:2;"/>
   <line x1="905" y1="254" x2="901.46446609407" y2="257.53553390593" style="stroke:#cb0;stroke-width:2;"/>
   <line x1="905" y1="254" x2="901.46446609407" y2="250.46446609407" style="stroke:#cb0;stroke-width:2;"/>
   <line x1="100" y1="519" x2="90" y2="519" style="stroke:#cb0;stroke-width:1;"/>
   <line x1="78" y1="109" x2="88" y2="109" style="stroke:#cb0;stroke-width:1;"/>
   <line x1="90" y1="519" x2="78" y2="109" style="stroke:#cb0;stroke-width:1;"/>
   <line x1="92.5" y1="519" x2="96.035533905933" y2="522.53553390593" style="stroke:#cb0;stroke-width:2;"/>
   <line x1="92.5" y1="519" x2="96.035533905933" y2="515.46446609407" style="stroke:#cb0;stroke-width:2;"/>
   <line x1="83" y1="109" x2="79.464466094067" y2="112.53553390593" style="stroke:#cb0;stroke-width:2;"/>
   <line x1="83" y1="109" x2="79.464466094067" y2="105.46446609407" style="stroke:#cb0;stroke-width:2;"/>
   <line x1="545" y1="555" x2="535" y2="555" style="stroke:#b0b;stroke-width:1;"/>
   <line x1="252" y1="519" x2="242" y2="519" style="stroke:#b0b;stroke-width:1;"/>
   <line x1="535" y1="555" x2="252" y2="519" style="stroke:#b0b;stroke-width:1;"/>
   <line x1="537.5" y1="555" x2="541.03553390593" y2="558.53553390593" style="stroke:#b0b;stroke-width:2;"/>
   <line x1="537.5" y1="555" x2="541.03553390593" y2="551.46446609407" style="stroke:#b0b;stroke-width:2;"/>
   <line x1="247" y1="519" x2="250.53553390593" y2="522.53553390593" style="stroke:#b0b;stroke-width:2;"/>
   <line x1="247" y1="519" x2="250.53553390593" y2="515.46446609407" style="stroke:#b0b;stroke-width:2;"/>
   <line x1="545" y1="595" x2="535" y2="595" style="stroke:#bbb;stroke-width:1;"/>
   <line x1="555" y1="328" x2="545" y2="328" style="stroke:#bbb;stroke-width:1;"/>
   <line x1="535" y1="595" x2="555" y2="328" style="stroke:#bbb;stroke-width:1;"/>
   <line x1="537.5" y1="595" x2="541.03553390593" y2="598.53553390593" style="stroke:#bbb;stroke-width:2;"/>
   <line x1="537.5" y1="595" x2="541.03553390593" y2="591.46446609407" style="stroke:#bbb;stroke-width:2;"/>
   <line x1="550" y1="328" x2="553.53553390593" y2="331.53553390593" style="stroke:#bbb;stroke-width:2;"/>
   <line x1="550" y1="328" x2="553.53553390593" y2="324.46446609407" style="stroke:#bbb;stroke-width:2;"/>
   <rect width="117" height="20" x="105" y="231" style="fill:#007;stroke:black;"/>
   <text width="117" height="20" x="110" y="245" style="fill:#fff;" font-family="Arial" font-size="16px"> CONSUMIBLE</text>
   <rect width="117" height="20" x="105" y="251" style="fill:#aea;stroke:black;"/>
   <text width="117" height="20" x="110" y="265" style="fill:black;" font-family="Arial" font-size="16px">id</text>
   <rect width="117" height="20" x="105" y="271" style="fill:none;stroke:black;"/>
   <text width="117" height="20" x="110" y="285" style="fill:black;" font-family="Arial" font-size="16px">nombre</text>
   <rect width="117" height="20" x="105" y="291" style="fill:none;stroke:black;"/>
   <text width="117" height="20" x="110" y="305" style="fill:black;" font-family="Arial" font-size="16px">precio</text>
   <rect width="117" height="20" x="105" y="311" style="fill:none;stroke:black;"/>
   <text width="117" height="20" x="110" y="325" style="fill:black;" font-family="Arial" font-size="16px">id_maquina</text>
   <rect width="177" height="20" x="603" y="353" style="fill:#007;stroke:black;"/>
   <text width="177" height="20" x="608" y="367" style="fill:#fff;" font-family="Arial" font-size="16px"> GASTO_ENERGETICO</text>
   <rect width="177" height="20" x="603" y="373" style="fill:#aea;stroke:black;"/>
   <text width="177" height="20" x="608" y="387" style="fill:black;" font-family="Arial" font-size="16px">id</text>
   <rect width="177" height="20" x="603" y="393" style="fill:none;stroke:black;"/>
   <text width="177" height="20" x="608" y="407" style="fill:black;" font-family="Arial" font-size="16px">nombre</text>
   <rect width="177" height="20" x="603" y="413" style="fill:none;stroke:black;"/>
   <text width="177" height="20" x="608" y="427" style="fill:black;" font-family="Arial" font-size="16px">coste_energia</text>
   <rect width="177" height="20" x="603" y="433" style="fill:none;stroke:black;"/>
   <text width="177" height="20" x="608" y="447" style="fill:black;" font-family="Arial" font-size="16px">id_maquina</text>
   <rect width="148" height="20" x="370" y="22" style="fill:#007;stroke:black;"/>
   <text width="148" height="20" x="375" y="36" style="fill:#fff;" font-family="Arial" font-size="16px"> GASTO_GENERAL</text>
   <rect width="148" height="20" x="370" y="42" style="fill:#aea;stroke:black;"/>
   <text width="148" height="20" x="375" y="56" style="fill:black;" font-family="Arial" font-size="16px">id</text>
   <rect width="148" height="20" x="370" y="62" style="fill:none;stroke:black;"/>
   <text width="148" height="20" x="375" y="76" style="fill:black;" font-family="Arial" font-size="16px">nombre</text>
   <rect width="148" height="20" x="370" y="82" style="fill:none;stroke:black;"/>
   <text width="148" height="20" x="375" y="96" style="fill:black;" font-family="Arial" font-size="16px">precio</text>
   <rect width="172" height="20" x="373" y="298" style="fill:#007;stroke:black;"/>
   <text width="172" height="20" x="378" y="312" style="fill:#fff;" font-family="Arial" font-size="16px"> MAQUINA</text>
   <rect width="172" height="20" x="373" y="318" style="fill:#aea;stroke:black;"/>
   <text width="172" height="20" x="378" y="332" style="fill:black;" font-family="Arial" font-size="16px">id</text>
   <rect width="172" height="20" x="373" y="338" style="fill:none;stroke:black;"/>
   <text width="172" height="20" x="378" y="352" style="fill:black;" font-family="Arial" font-size="16px">nombre</text>
   <rect width="172" height="20" x="373" y="358" style="fill:none;stroke:black;"/>
   <text width="172" height="20" x="378" y="372" style="fill:black;" font-family="Arial" font-size="16px">produccion_m2</text>
   <rect width="172" height="20" x="373" y="378" style="fill:none;stroke:black;"/>
   <text width="172" height="20" x="378" y="392" style="fill:black;" font-family="Arial" font-size="16px">porcentaje_desperdicio</text>
   <rect width="133" height="20" x="368" y="137" style="fill:#007;stroke:black;"/>
   <text width="133" height="20" x="373" y="151" style="fill:#fff;" font-family="Arial" font-size="16px"> MATERIA_PRIMA</text>
   <rect width="133" height="20" x="368" y="157" style="fill:#aea;stroke:black;"/>
   <text width="133" height="20" x="373" y="171" style="fill:black;" font-family="Arial" font-size="16px">id</text>
   <rect width="133" height="20" x="368" y="177" style="fill:none;stroke:black;"/>
   <text width="133" height="20" x="373" y="191" style="fill:black;" font-family="Arial" font-size="16px">nombre</text>
   <rect width="133" height="20" x="368" y="197" style="fill:none;stroke:black;"/>
   <text width="133" height="20" x="373" y="211" style="fill:black;" font-family="Arial" font-size="16px">cantidad_m3</text>
   <rect width="133" height="20" x="368" y="217" style="fill:none;stroke:black;"/>
   <text width="133" height="20" x="373" y="231" style="fill:black;" font-family="Arial" font-size="16px">precio</text>
   <rect width="198" height="20" x="910" y="224" style="fill:#007;stroke:black;"/>
   <text width="198" height="20" x="915" y="238" style="fill:#fff;" font-family="Arial" font-size="16px"> PARTE_CORTABLOQUES</text>
   <rect width="198" height="20" x="910" y="244" style="fill:#aea;stroke:black;"/>
   <text width="198" height="20" x="915" y="258" style="fill:black;" font-family="Arial" font-size="16px">id</text>
   <rect width="198" height="20" x="910" y="264" style="fill:none;stroke:black;"/>
   <text width="198" height="20" x="915" y="278" style="fill:black;" font-family="Arial" font-size="16px">fecha_inicio</text>
   <rect width="198" height="20" x="910" y="284" style="fill:none;stroke:black;"/>
   <text width="198" height="20" x="915" y="298" style="fill:black;" font-family="Arial" font-size="16px">fecha_fin</text>
   <rect width="198" height="20" x="910" y="304" style="fill:none;stroke:black;"/>
   <text width="198" height="20" x="915" y="318" style="fill:black;" font-family="Arial" font-size="16px">hora_inicio</text>
   <rect width="198" height="20" x="910" y="324" style="fill:none;stroke:black;"/>
   <text width="198" height="20" x="915" y="338" style="fill:black;" font-family="Arial" font-size="16px">hora_fin</text>
   <rect width="198" height="20" x="910" y="344" style="fill:none;stroke:black;"/>
   <text width="198" height="20" x="915" y="358" style="fill:black;" font-family="Arial" font-size="16px">observaciones</text>
   <rect width="198" height="20" x="910" y="364" style="fill:none;stroke:black;"/>
   <text width="198" height="20" x="915" y="378" style="fill:black;" font-family="Arial" font-size="16px">numero_trabajador</text>
   <rect width="198" height="20" x="910" y="384" style="fill:none;stroke:black;"/>
   <text width="198" height="20" x="915" y="398" style="fill:black;" font-family="Arial" font-size="16px">numero_bloque</text>
   <rect width="198" height="20" x="910" y="404" style="fill:none;stroke:black;"/>
   <text width="198" height="20" x="915" y="418" style="fill:black;" font-family="Arial" font-size="16px">bis</text>
   <rect width="198" height="20" x="910" y="424" style="fill:none;stroke:black;"/>
   <text width="198" height="20" x="915" y="438" style="fill:black;" font-family="Arial" font-size="16px">retal</text>
   <rect width="196" height="20" x="907" y="17" style="fill:#007;stroke:black;"/>
   <text width="196" height="20" x="912" y="31" style="fill:#fff;" font-family="Arial" font-size="16px"> PRODUCCION_MAQUINA</text>
   <rect width="196" height="20" x="907" y="37" style="fill:#aea;stroke:black;"/>
   <text width="196" height="20" x="912" y="51" style="fill:black;" font-family="Arial" font-size="16px">id</text>
   <rect width="196" height="20" x="907" y="57" style="fill:none;stroke:black;"/>
   <text width="196" height="20" x="912" y="71" style="fill:black;" font-family="Arial" font-size="16px">id_parte</text>
   <rect width="196" height="20" x="907" y="77" style="fill:none;stroke:black;"/>
   <text width="196" height="20" x="912" y="91" style="fill:black;" font-family="Arial" font-size="16px">largo</text>
   <rect width="196" height="20" x="907" y="97" style="fill:none;stroke:black;"/>
   <text width="196" height="20" x="912" y="111" style="fill:black;" font-family="Arial" font-size="16px">ancho</text>
   <rect width="196" height="20" x="907" y="117" style="fill:none;stroke:black;"/>
   <text width="196" height="20" x="912" y="131" style="fill:black;" font-family="Arial" font-size="16px">grosor</text>
   <rect width="196" height="20" x="907" y="137" style="fill:none;stroke:black;"/>
   <text width="196" height="20" x="912" y="151" style="fill:black;" font-family="Arial" font-size="16px">cantidad</text>
   <rect width="142" height="20" x="100" y="469" style="fill:#007;stroke:black;"/>
   <text width="142" height="20" x="105" y="483" style="fill:#fff;" font-family="Arial" font-size="16px"> TRABAJADOR</text>
   <rect width="142" height="20" x="100" y="489" style="fill:#aea;stroke:black;"/>
   <text width="142" height="20" x="105" y="503" style="fill:black;" font-family="Arial" font-size="16px">id</text>
   <rect width="142" height="20" x="100" y="509" style="fill:none;stroke:black;"/>
   <text width="142" height="20" x="105" y="523" style="fill:black;" font-family="Arial" font-size="16px">numero_trabajador</text>
   <rect width="142" height="20" x="100" y="529" style="fill:none;stroke:black;"/>
   <text width="142" height="20" x="105" y="543" style="fill:black;" font-family="Arial" font-size="16px">nombre</text>
   <rect width="142" height="20" x="100" y="549" style="fill:none;stroke:black;"/>
   <text width="142" height="20" x="105" y="563" style="fill:black;" font-family="Arial" font-size="16px">apellido1</text>
   <rect width="142" height="20" x="100" y="569" style="fill:none;stroke:black;"/>
   <text width="142" height="20" x="105" y="583" style="fill:black;" font-family="Arial" font-size="16px">apellido2</text>
   <rect width="184" height="20" x="545" y="505" style="fill:#007;stroke:black;"/>
   <text width="184" height="20" x="550" y="519" style="fill:#fff;" font-family="Arial" font-size="16px"> TRABAJADOR_COSTES</text>
   <rect width="184" height="20" x="545" y="525" style="fill:#aea;stroke:black;"/>
   <text width="184" height="20" x="550" y="539" style="fill:black;" font-family="Arial" font-size="16px">id</text>
   <rect width="184" height="20" x="545" y="545" style="fill:none;stroke:black;"/>
   <text width="184" height="20" x="550" y="559" style="fill:black;" font-family="Arial" font-size="16px">numero_trabajador</text>
   <rect width="184" height="20" x="545" y="565" style="fill:none;stroke:black;"/>
   <text width="184" height="20" x="550" y="579" style="fill:black;" font-family="Arial" font-size="16px">precio</text>
   <rect width="184" height="20" x="545" y="585" style="fill:none;stroke:black;"/>
   <text width="184" height="20" x="550" y="599" style="fill:black;" font-family="Arial" font-size="16px">id_maquina</text>
   <rect width="119" height="20" x="640" y="143" style="fill:#007;stroke:black;"/>
   <text width="119" height="20" x="645" y="157" style="fill:#fff;" font-family="Arial" font-size="16px"> TRANSPORTE</text>
   <rect width="119" height="20" x="640" y="163" style="fill:#aea;stroke:black;"/>
   <text width="119" height="20" x="645" y="177" style="fill:black;" font-family="Arial" font-size="16px">id</text>
   <rect width="119" height="20" x="640" y="183" style="fill:none;stroke:black;"/>
   <text width="119" height="20" x="645" y="197" style="fill:black;" font-family="Arial" font-size="16px">nombre</text>
   <rect width="119" height="20" x="640" y="203" style="fill:none;stroke:black;"/>
   <text width="119" height="20" x="645" y="217" style="fill:black;" font-family="Arial" font-size="16px">cantidad</text>
   <rect width="119" height="20" x="640" y="223" style="fill:none;stroke:black;"/>
   <text width="119" height="20" x="645" y="237" style="fill:black;" font-family="Arial" font-size="16px">precio</text>
   <rect width="142" height="20" x="88" y="19" style="fill:#007;stroke:black;"/>
   <text width="142" height="20" x="93" y="33" style="fill:#fff;" font-family="Arial" font-size="16px"> USER</text>
   <rect width="142" height="20" x="88" y="39" style="fill:#aea;stroke:black;"/>
   <text width="142" height="20" x="93" y="53" style="fill:black;" font-family="Arial" font-size="16px">id</text>
   <rect width="142" height="20" x="88" y="59" style="fill:none;stroke:black;"/>
   <text width="142" height="20" x="93" y="73" style="fill:black;" font-family="Arial" font-size="16px">email</text>
   <rect width="142" height="20" x="88" y="79" style="fill:none;stroke:black;"/>
   <text width="142" height="20" x="93" y="93" style="fill:black;" font-family="Arial" font-size="16px">password</text>
   <rect width="142" height="20" x="88" y="99" style="fill:none;stroke:black;"/>
   <text width="142" height="20" x="93" y="113" style="fill:black;" font-family="Arial" font-size="16px">numero_trabajador</text>
   <rect width="142" height="20" x="88" y="119" style="fill:none;stroke:black;"/>
   <text width="142" height="20" x="93" y="133" style="fill:black;" font-family="Arial" font-size="16px">fecha_registro</text>
   <rect width="142" height="20" x="88" y="139" style="fill:none;stroke:black;"/>
   <text width="142" height="20" x="93" y="153" style="fill:black;" font-family="Arial" font-size="16px">ultima_conexion</text>
   <rect width="142" height="20" x="88" y="159" style="fill:none;stroke:black;"/>
   <text width="142" height="20" x="93" y="173" style="fill:black;" font-family="Arial" font-size="16px">roles</text>
</svg>
